<?xml version="1.0" standalone="no"?>
<!DOCTYPE svg>
<svg version="1.0" xmlns="http://www.w3.org/2000/svg" height="50" width="50" xmlns:xlink="http://www.w3.org/1999/xlink">
    <defs>
        <linearGradient id="degradadoRemache" x1="0%" y1="0%" x2="20%" y2="20%">
          <stop offset="0%" stop-color="rgb(49, 43, 7)" stop-opacity="1"/>
          <stop offset="30%" stop-color="rgb(133, 115, 13)" stop-opacity="1"/>
        </linearGradient>
      </defs>
    <rect width="50" height="50" x="0" y="0" fill="rgb(220, 188, 7)" rx="3" ry="3"/>
    <circle cx="5" cy="5" r="3" stroke="rgb(148, 126, 1)" stroke-width="0.5" fill="rgb(133, 115, 13)" />
    <circle cx="45" cy="5" r="3" stroke="rgb(148, 126, 1)" stroke-width="0.5" fill="rgb(133, 115, 13)" />
    
    
      <rect width="10" height="10" x="10" y="10.3" fill="white" rx="1" ry="1"/>
      <rect width="8" height="8" x="12" y="6" fill="white" transform="rotate(45 15,10)"/>
      <rect width="20" height="6" x="15.8" y="5" fill="white"/>
      <rect width="8" height="8" x="26.2" y="-8.4" fill="white" transform="rotate(45 15,10)"/>
      <rect width="10" height="13" x="31.5" y="10.7" fill="white"/>
      <rect width="9" height="8" x="34.4" y="0.9" fill="white" transform="rotate(45 15,10)"/>
       <rect width="10" height="8" x="25.8" y="21.5" fill="white"/>
      <rect width="9" height="7.8" x="30.8" y="10.6" fill="white" transform="rotate(45 15,10)"/>
      <rect width="10" height="10" x="20.1" y="26.7" fill="white"  rx="1" ry="1"/>
      <rect width="10" height="7" x="20.1" y="39" fill="white" rx="1" ry="1"/>
  
    
    <circle cx="5" cy="45" r="3" stroke="rgb(148, 126, 1)" stroke-width="0.5" fill="rgb(133, 115, 13)" />
    <circle cx="45" cy="45" r="3" stroke="rgb(148, 126, 1)" stroke-width="0.5" fill="rgb(133, 115, 13)" />
</svg>