<svg id="seta" version="1.1" xmlns="http://www.w3.org/2000/svg" xmlns:xlink="http://www.w3.org/1999/xlink" width="400" height="400" viewBox="0, 0, 400,400"><g id="svgg"><path id="path0" d="M183.058 17.476 C 182.906 17.627,181.121 17.894,179.091 18.069 C 174.862 18.433,170.516 19.080,163.600 20.375 C 160.536 20.948,156.682 21.861,152.600 22.981 C 146.821 24.565,145.571 24.940,141.600 26.280 C 137.389 27.701,133.243 29.236,131.000 30.205 C 130.340 30.490,129.080 31.018,128.200 31.377 C 122.512 33.699,112.871 38.605,106.800 42.267 C 104.270 43.794,101.759 45.303,101.220 45.621 C 100.682 45.940,100.052 46.345,99.820 46.522 C 99.589 46.700,97.066 48.472,94.213 50.460 C 85.310 56.667,79.967 61.219,70.588 70.593 C 62.453 78.723,60.777 80.588,55.183 87.735 C 50.893 93.216,50.947 92.415,54.391 99.366 C 57.195 105.026,60.800 113.967,60.800 115.260 C 60.800 115.641,60.959 116.051,61.154 116.171 C 61.349 116.292,61.607 116.887,61.729 117.495 C 61.851 118.103,62.142 119.365,62.375 120.300 C 63.407 124.429,63.668 125.507,64.046 127.200 C 67.256 141.580,66.923 161.998,63.240 176.600 C 63.018 177.480,62.668 178.920,62.462 179.800 C 57.696 200.178,42.262 224.550,25.300 238.486 C 22.659 240.656,22.536 240.906,23.250 242.681 C 23.874 244.234,24.137 244.919,25.598 248.800 C 27.154 252.932,30.938 260.784,32.476 263.072 C 33.094 263.992,33.600 264.857,33.600 264.994 C 33.600 265.215,36.446 269.551,37.279 270.600 C 37.454 270.820,38.874 272.680,40.436 274.733 C 46.599 282.834,56.947 292.617,65.168 298.114 C 67.766 299.852,68.000 299.764,68.000 297.055 C 68.000 293.099,75.722 284.478,86.661 276.220 C 87.948 275.249,89.478 274.082,90.063 273.627 C 90.648 273.172,91.308 272.800,91.530 272.800 C 91.752 272.800,91.993 272.653,92.067 272.472 C 92.219 272.097,97.022 268.800,97.416 268.800 C 97.559 268.800,98.154 268.461,98.738 268.047 C 102.071 265.683,112.169 260.484,118.600 257.822 C 123.623 255.742,123.638 255.736,125.200 255.200 C 125.970 254.936,126.960 254.576,127.400 254.400 C 127.840 254.224,128.830 253.864,129.600 253.600 C 130.370 253.336,131.360 252.976,131.800 252.800 C 132.988 252.326,134.776 251.754,136.800 251.201 C 137.790 250.930,138.960 250.564,139.400 250.388 C 140.224 250.057,141.109 249.806,143.700 249.169 C 147.266 248.292,148.290 248.027,149.800 247.593 C 150.680 247.340,152.255 246.968,153.300 246.767 C 154.345 246.565,156.145 246.213,157.300 245.984 C 172.357 243.004,181.470 242.200,200.200 242.200 C 214.524 242.200,217.369 242.341,228.600 243.604 C 232.210 244.010,239.377 245.201,243.000 245.997 C 244.100 246.239,245.810 246.597,246.800 246.793 C 248.485 247.127,249.398 247.343,253.700 248.429 C 254.635 248.665,255.987 248.955,256.704 249.073 C 257.421 249.192,258.106 249.449,258.227 249.644 C 258.348 249.840,258.966 250.000,259.600 250.000 C 260.234 250.000,260.864 250.180,261.000 250.400 C 261.136 250.620,261.599 250.800,262.029 250.800 C 262.459 250.800,263.123 250.960,263.505 251.155 C 263.887 251.351,266.000 252.083,268.200 252.782 C 276.576 255.445,290.176 261.403,297.300 265.531 C 298.125 266.009,299.468 266.778,300.283 267.240 C 308.589 271.943,318.592 279.808,326.071 287.515 C 332.187 293.817,332.156 293.753,332.059 300.100 C 332.016 302.905,332.077 305.200,332.195 305.200 C 332.492 305.200,335.901 302.812,340.400 299.454 C 346.796 294.678,358.492 282.754,361.086 278.362 C 361.464 277.723,361.914 277.200,362.086 277.200 C 362.259 277.200,362.400 276.964,362.400 276.675 C 362.400 276.387,362.715 275.793,363.100 275.355 C 363.485 274.917,364.058 274.118,364.373 273.580 C 364.688 273.041,365.774 271.250,366.786 269.600 C 369.082 265.860,372.028 259.776,373.626 255.477 C 374.296 253.674,375.014 251.887,375.222 251.505 C 375.430 251.123,375.600 250.478,375.600 250.072 C 375.600 249.666,375.723 249.210,375.874 249.059 C 376.313 248.620,377.187 245.881,377.194 244.924 C 377.197 244.442,377.380 243.936,377.600 243.800 C 378.901 242.996,377.966 241.296,374.719 238.563 C 368.574 233.389,362.079 226.532,357.138 220.000 C 354.756 216.850,350.000 209.818,350.000 209.445 C 350.000 209.355,349.315 208.138,348.478 206.741 C 344.077 199.393,340.092 189.619,337.413 179.600 C 337.266 179.050,336.974 177.970,336.764 177.200 C 335.968 174.286,335.091 169.276,334.313 163.200 C 333.672 158.195,333.667 141.179,334.306 136.800 C 336.486 121.846,339.347 112.259,345.249 100.122 C 348.986 92.438,348.891 93.339,346.336 89.833 C 333.318 71.964,312.953 53.819,292.481 41.847 C 286.525 38.364,272.342 31.200,271.404 31.200 C 271.287 31.200,270.428 30.860,269.496 30.444 C 264.901 28.395,258.129 26.047,251.000 24.033 C 243.519 21.919,241.881 21.505,238.200 20.800 C 236.880 20.547,235.170 20.183,234.400 19.991 C 231.897 19.366,227.114 18.664,221.000 18.024 C 219.020 17.817,216.905 17.525,216.300 17.377 C 215.595 17.204,215.200 17.267,215.200 17.553 C 215.200 17.799,215.639 18.000,216.176 18.000 C 216.713 18.000,217.264 18.180,217.400 18.400 C 217.536 18.620,218.299 18.800,219.095 18.800 C 219.892 18.800,221.096 18.968,221.772 19.173 C 222.447 19.378,223.810 19.762,224.800 20.027 C 232.909 22.195,238.986 24.517,246.000 28.130 C 251.546 30.986,259.474 36.235,263.396 39.647 C 264.058 40.223,265.912 41.813,267.517 43.180 C 272.008 47.008,284.400 61.865,284.400 63.422 C 284.400 63.562,284.739 64.154,285.154 64.738 C 288.550 69.520,294.391 82.698,295.974 89.148 C 296.170 89.947,296.589 91.590,296.906 92.800 C 303.308 117.288,299.443 143.827,286.051 167.331 C 279.864 178.189,267.845 191.241,257.800 198.006 C 256.700 198.747,255.740 199.499,255.667 199.677 C 255.593 199.855,255.356 200.000,255.139 200.000 C 254.922 200.000,253.991 200.518,253.070 201.152 C 247.018 205.316,236.274 210.180,228.200 212.413 C 221.184 214.353,219.872 214.629,212.600 215.699 C 208.973 216.233,192.241 216.363,188.600 215.885 C 183.448 215.210,177.966 214.075,171.800 212.406 C 150.654 206.683,130.326 191.605,116.515 171.400 C 114.663 168.691,108.653 157.113,107.534 154.100 C 107.350 153.605,107.038 152.795,106.840 152.300 C 106.643 151.805,106.264 150.770,106.000 150.000 C 105.736 149.230,105.378 148.240,105.205 147.800 C 104.467 145.919,102.691 139.047,102.052 135.600 C 100.188 125.537,99.764 116.598,100.718 107.400 C 101.352 101.275,102.261 95.843,103.193 92.600 C 103.446 91.720,103.798 90.370,103.975 89.600 C 104.316 88.119,105.409 84.741,105.982 83.400 C 106.170 82.960,106.908 81.070,107.622 79.200 C 109.309 74.782,111.964 69.530,114.871 64.858 C 116.152 62.800,117.200 61.047,117.200 60.963 C 117.200 60.878,117.460 60.492,117.778 60.105 C 118.095 59.717,119.219 58.230,120.274 56.800 C 125.254 50.051,131.655 43.647,140.454 36.609 C 145.783 32.347,158.902 25.273,165.400 23.158 C 166.280 22.871,167.171 22.493,167.380 22.318 C 167.589 22.143,168.163 22.000,168.656 22.000 C 169.149 22.000,169.651 21.841,169.771 21.646 C 169.892 21.451,170.487 21.196,171.095 21.079 C 171.703 20.962,172.920 20.657,173.800 20.403 C 175.959 19.778,178.662 19.194,180.600 18.933 C 181.480 18.815,182.371 18.556,182.580 18.359 C 182.789 18.162,183.374 18.000,183.880 18.000 C 184.386 18.000,184.800 17.820,184.800 17.600 C 184.800 17.148,183.480 17.054,183.058 17.476 M190.707 258.690 C 191.426 258.779,192.506 258.777,193.107 258.686 C 193.708 258.595,193.120 258.522,191.800 258.524 C 190.480 258.526,189.988 258.601,190.707 258.690 M207.107 258.690 C 207.826 258.779,208.906 258.777,209.507 258.686 C 210.108 258.595,209.520 258.522,208.200 258.524 C 206.880 258.526,206.388 258.601,207.107 258.690 M153.505 283.483 C 154.002 283.579,154.722 283.575,155.105 283.475 C 155.487 283.375,155.080 283.296,154.200 283.301 C 153.320 283.305,153.007 283.387,153.505 283.483 M245.100 283.482 C 245.595 283.578,246.405 283.578,246.900 283.482 C 247.395 283.387,246.990 283.309,246.000 283.309 C 245.010 283.309,244.605 283.387,245.100 283.482 M166.531 312.200 C 166.533 313.740,166.605 314.321,166.692 313.491 C 166.779 312.661,166.777 311.401,166.689 310.691 C 166.600 309.981,166.529 310.660,166.531 312.200 M233.361 316.800 C 233.361 320.210,233.422 321.605,233.497 319.900 C 233.572 318.195,233.572 315.405,233.497 313.700 C 233.422 311.995,233.361 313.390,233.361 316.800 M166.531 321.000 C 166.533 322.540,166.605 323.121,166.692 322.291 C 166.779 321.461,166.777 320.201,166.689 319.491 C 166.600 318.781,166.529 319.460,166.531 321.000 M179.305 383.087 C 179.914 383.179,180.814 383.177,181.305 383.082 C 181.797 382.987,181.300 382.911,180.200 382.914 C 179.100 382.917,178.697 382.995,179.305 383.087 M218.905 383.087 C 219.514 383.179,220.414 383.177,220.905 383.082 C 221.397 382.987,220.900 382.911,219.800 382.914 C 218.700 382.917,218.297 382.995,218.905 383.087 M198.700 383.489 C 199.415 383.578,200.585 383.578,201.300 383.489 C 202.015 383.401,201.430 383.328,200.000 383.328 C 198.570 383.328,197.985 383.401,198.700 383.489 " stroke="none" fill="#2ee637" fill-rule="evenodd"></path><path id="path1" d="M178.300 0.275 C 176.375 0.361,174.800 0.604,174.800 0.816 C 174.800 1.027,173.551 1.200,172.024 1.200 C 170.497 1.200,169.136 1.380,169.000 1.600 C 168.864 1.820,167.773 2.000,166.576 2.000 C 165.379 2.000,164.400 2.180,164.400 2.400 C 164.400 2.620,163.410 2.800,162.200 2.800 C 160.990 2.800,160.000 2.980,160.000 3.200 C 160.000 3.420,159.291 3.600,158.424 3.600 C 157.557 3.600,156.736 3.780,156.600 4.000 C 156.464 4.220,155.553 4.400,154.576 4.400 C 153.599 4.400,152.800 4.580,152.800 4.800 C 152.800 5.020,152.080 5.200,151.200 5.200 C 150.320 5.200,149.600 5.380,149.600 5.600 C 149.600 5.820,148.981 6.000,148.224 6.000 C 147.467 6.000,146.736 6.180,146.600 6.400 C 146.464 6.620,145.823 6.800,145.176 6.800 C 144.529 6.800,144.000 6.980,144.000 7.200 C 144.000 7.420,143.370 7.600,142.600 7.600 C 141.830 7.600,141.200 7.780,141.200 8.000 C 141.200 8.220,140.771 8.400,140.246 8.400 C 139.294 8.400,135.538 9.409,134.400 9.970 C 134.070 10.132,132.945 10.515,131.900 10.820 C 130.855 11.125,130.000 11.515,130.000 11.687 C 130.000 11.859,129.638 12.000,129.195 12.000 C 128.752 12.000,128.032 12.180,127.595 12.400 C 127.158 12.620,126.442 12.980,126.005 13.200 C 125.568 13.420,124.938 13.600,124.605 13.600 C 124.272 13.600,124.000 13.747,124.000 13.928 C 124.000 14.108,123.100 14.500,122.000 14.800 C 120.900 15.100,120.000 15.492,120.000 15.672 C 120.000 15.853,119.640 16.000,119.200 16.000 C 118.760 16.000,118.400 16.180,118.400 16.400 C 118.400 16.620,118.040 16.800,117.600 16.800 C 117.160 16.800,116.800 16.980,116.800 17.200 C 116.800 17.420,116.528 17.600,116.195 17.600 C 115.862 17.600,115.277 17.768,114.895 17.974 C 114.513 18.179,113.615 18.583,112.900 18.871 C 112.185 19.160,111.600 19.531,111.600 19.698 C 111.600 19.864,111.240 20.000,110.800 20.000 C 110.360 20.000,110.000 20.159,110.000 20.353 C 110.000 20.548,109.685 20.807,109.300 20.929 C 108.364 21.225,106.234 22.524,106.067 22.900 C 105.993 23.065,105.588 23.200,105.167 23.200 C 104.745 23.200,104.400 23.380,104.400 23.600 C 104.400 23.820,104.040 24.000,103.600 24.000 C 103.160 24.000,102.800 24.180,102.800 24.400 C 102.800 24.620,102.536 24.800,102.214 24.800 C 101.401 24.800,98.800 26.076,98.800 26.474 C 98.800 26.653,98.440 26.800,98.000 26.800 C 97.560 26.800,97.200 26.980,97.200 27.200 C 97.200 27.420,96.964 27.600,96.675 27.600 C 96.387 27.600,95.802 27.915,95.375 28.300 C 94.949 28.685,94.108 29.254,93.507 29.564 C 92.905 29.874,92.058 30.459,91.623 30.864 C 91.189 31.269,90.596 31.600,90.305 31.600 C 90.014 31.600,89.517 31.960,89.200 32.400 C 88.883 32.840,88.391 33.200,88.108 33.200 C 87.825 33.200,87.028 33.740,86.337 34.400 C 85.646 35.060,84.878 35.600,84.629 35.600 C 84.380 35.600,83.917 35.960,83.600 36.400 C 83.283 36.840,82.743 37.200,82.400 37.200 C 82.057 37.200,81.517 37.560,81.200 38.000 C 80.883 38.440,80.420 38.800,80.171 38.800 C 79.922 38.800,79.193 39.295,78.550 39.900 C 77.908 40.505,76.666 41.531,75.791 42.179 C 74.916 42.828,73.909 43.683,73.553 44.079 C 73.197 44.476,72.718 44.800,72.488 44.800 C 72.258 44.800,70.973 45.880,69.632 47.200 C 68.292 48.520,67.026 49.600,66.820 49.600 C 66.517 49.600,63.817 52.221,58.200 57.966 C 57.980 58.191,56.177 59.956,54.193 61.888 C 52.209 63.820,50.141 66.028,49.598 66.795 C 49.055 67.562,47.753 69.065,46.705 70.135 C 45.657 71.205,44.800 72.267,44.800 72.494 C 44.800 72.721,44.476 73.197,44.079 73.553 C 43.683 73.909,42.830 74.920,42.184 75.800 C 41.538 76.680,40.692 77.691,40.304 78.047 C 39.917 78.403,39.600 78.898,39.600 79.147 C 39.600 79.396,39.420 79.600,39.200 79.600 C 38.980 79.600,38.800 79.830,38.800 80.112 C 38.800 80.393,38.440 80.883,38.000 81.200 C 37.560 81.517,37.200 82.057,37.200 82.400 C 37.200 82.743,36.840 83.283,36.400 83.600 C 35.960 83.917,35.600 84.380,35.600 84.629 C 35.600 84.878,35.060 85.646,34.400 86.337 C 33.740 87.028,33.200 87.825,33.200 88.108 C 33.200 88.391,32.840 88.883,32.400 89.200 C 31.960 89.517,31.600 90.031,31.600 90.341 C 31.600 90.652,31.284 91.197,30.897 91.553 C 30.511 91.909,29.926 92.740,29.597 93.400 C 29.269 94.060,28.685 94.949,28.300 95.375 C 27.915 95.802,27.600 96.387,27.600 96.675 C 27.600 96.964,27.420 97.200,27.200 97.200 C 26.980 97.200,26.800 97.560,26.800 98.000 C 26.800 98.440,26.653 98.800,26.474 98.800 C 26.076 98.800,24.800 101.401,24.800 102.214 C 24.800 102.536,24.620 102.800,24.400 102.800 C 24.180 102.800,24.000 103.160,24.000 103.600 C 24.000 104.040,23.820 104.400,23.600 104.400 C 23.380 104.400,23.200 104.760,23.200 105.200 C 23.200 105.640,23.020 106.000,22.800 106.000 C 22.580 106.000,22.400 106.236,22.400 106.525 C 22.400 106.813,22.040 107.436,21.600 107.908 C 21.160 108.380,20.800 109.044,20.800 109.383 C 20.800 109.722,20.620 110.000,20.400 110.000 C 20.180 110.000,20.000 110.360,20.000 110.800 C 20.000 111.240,19.864 111.600,19.698 111.600 C 19.531 111.600,19.160 112.185,18.871 112.900 C 18.583 113.615,18.179 114.513,17.974 114.895 C 17.768 115.277,17.600 115.862,17.600 116.195 C 17.600 116.528,17.420 116.800,17.200 116.800 C 16.980 116.800,16.800 117.160,16.800 117.600 C 16.800 118.040,16.620 118.400,16.400 118.400 C 16.180 118.400,16.000 118.760,16.000 119.200 C 16.000 119.640,15.853 120.000,15.672 120.000 C 15.492 120.000,15.100 120.900,14.800 122.000 C 14.500 123.100,14.108 124.000,13.928 124.000 C 13.747 124.000,13.600 124.272,13.600 124.605 C 13.600 124.938,13.420 125.568,13.200 126.005 C 12.980 126.442,12.620 127.158,12.400 127.595 C 12.180 128.032,12.000 128.752,12.000 129.195 C 12.000 129.638,11.859 130.000,11.687 130.000 C 11.515 130.000,11.125 130.855,10.820 131.900 C 10.515 132.945,10.132 134.070,9.970 134.400 C 9.409 135.538,8.400 139.294,8.400 140.246 C 8.400 140.771,8.220 141.200,8.000 141.200 C 7.780 141.200,7.600 141.830,7.600 142.600 C 7.600 143.370,7.420 144.000,7.200 144.000 C 6.980 144.000,6.800 144.529,6.800 145.176 C 6.800 145.823,6.620 146.464,6.400 146.600 C 6.180 146.736,6.000 147.467,6.000 148.224 C 6.000 148.981,5.820 149.600,5.600 149.600 C 5.380 149.600,5.200 150.320,5.200 151.200 C 5.200 152.080,5.020 152.800,4.800 152.800 C 4.580 152.800,4.400 153.599,4.400 154.576 C 4.400 155.553,4.220 156.464,4.000 156.600 C 3.780 156.736,3.600 157.557,3.600 158.424 C 3.600 159.291,3.420 160.000,3.200 160.000 C 2.980 160.000,2.800 160.889,2.800 161.976 C 2.800 163.063,2.620 164.064,2.400 164.200 C 2.180 164.336,2.000 165.416,2.000 166.600 C 2.000 167.784,1.820 168.864,1.600 169.000 C 1.380 169.136,1.200 170.482,1.200 171.990 C 1.200 173.829,1.035 174.788,0.700 174.900 C 0.307 175.031,0.200 180.249,0.200 199.200 C 0.200 218.151,0.307 223.369,0.700 223.500 C 1.024 223.608,1.200 224.491,1.200 226.010 C 1.200 227.298,1.380 228.464,1.600 228.600 C 1.820 228.736,2.000 229.827,2.000 231.024 C 2.000 232.221,2.180 233.200,2.400 233.200 C 2.620 233.200,2.800 233.920,2.800 234.800 C 2.800 235.680,2.980 236.400,3.200 236.400 C 3.420 236.400,3.600 237.120,3.600 238.000 C 3.600 238.880,3.780 239.600,4.000 239.600 C 4.220 239.600,4.400 240.230,4.400 241.000 C 4.400 241.770,4.580 242.400,4.800 242.400 C 5.020 242.400,5.200 243.120,5.200 244.000 C 5.200 244.880,5.380 245.600,5.600 245.600 C 5.820 245.600,6.000 246.140,6.000 246.800 C 6.000 247.460,6.180 248.000,6.400 248.000 C 6.620 248.000,6.800 248.540,6.800 249.200 C 6.800 249.860,6.980 250.400,7.200 250.400 C 7.420 250.400,7.600 250.762,7.600 251.205 C 7.600 251.648,7.764 252.323,7.965 252.705 C 8.165 253.087,8.629 254.300,8.996 255.400 C 9.608 257.234,10.759 259.969,11.644 261.695 C 11.840 262.077,12.000 262.662,12.000 262.995 C 12.000 263.328,12.180 263.600,12.400 263.600 C 12.620 263.600,12.800 263.960,12.800 264.400 C 12.800 264.840,12.980 265.200,13.200 265.200 C 13.420 265.200,13.600 265.545,13.600 265.967 C 13.600 266.388,13.735 266.793,13.900 266.867 C 14.276 267.034,15.575 269.164,15.871 270.100 C 15.993 270.485,16.252 270.800,16.447 270.800 C 16.641 270.800,16.800 271.160,16.800 271.600 C 16.800 272.040,16.980 272.400,17.200 272.400 C 17.420 272.400,17.600 272.670,17.600 273.000 C 17.600 273.330,17.780 273.600,18.000 273.600 C 18.220 273.600,18.400 273.870,18.400 274.200 C 18.400 274.530,18.580 274.800,18.800 274.800 C 19.020 274.800,19.200 275.070,19.200 275.400 C 19.200 275.730,19.350 276.000,19.532 276.000 C 19.715 276.000,20.119 276.495,20.430 277.100 C 20.740 277.705,21.311 278.491,21.697 278.847 C 22.084 279.203,22.400 279.748,22.400 280.059 C 22.400 280.369,22.760 280.883,23.200 281.200 C 23.640 281.517,24.000 282.082,24.000 282.455 C 24.000 282.828,24.146 283.193,24.325 283.267 C 24.504 283.340,25.409 284.434,26.336 285.697 C 27.263 286.961,28.646 288.620,29.411 289.384 C 30.175 290.148,30.800 290.871,30.800 290.990 C 30.800 291.285,41.532 302.000,41.828 302.000 C 41.957 302.000,42.724 302.681,43.531 303.513 C 44.339 304.345,45.630 305.465,46.400 306.002 C 47.170 306.538,48.248 307.387,48.796 307.889 C 49.344 308.390,50.036 308.800,50.335 308.800 C 50.634 308.800,51.383 309.340,52.000 310.000 C 52.617 310.660,53.369 311.200,53.672 311.200 C 53.975 311.200,54.483 311.560,54.800 312.000 C 55.117 312.440,55.657 312.800,56.000 312.800 C 56.343 312.800,56.883 313.160,57.200 313.600 C 57.517 314.040,57.924 314.400,58.105 314.400 C 58.286 314.400,58.820 314.760,59.292 315.200 C 59.764 315.640,60.387 316.000,60.675 316.000 C 60.964 316.000,61.200 316.180,61.200 316.400 C 61.200 316.620,61.470 316.800,61.800 316.800 C 62.130 316.800,62.400 316.980,62.400 317.200 C 62.400 317.420,62.670 317.600,63.000 317.600 C 63.330 317.600,63.600 317.780,63.600 318.000 C 63.600 318.220,63.878 318.400,64.217 318.400 C 64.556 318.400,65.220 318.760,65.692 319.200 C 66.164 319.640,66.787 320.000,67.075 320.000 C 67.364 320.000,67.600 320.180,67.600 320.400 C 67.600 320.620,67.960 320.800,68.400 320.800 C 68.987 320.800,69.200 321.067,69.200 321.800 C 69.200 322.350,69.380 322.800,69.600 322.800 C 69.822 322.800,70.000 323.867,70.000 325.200 C 70.000 326.533,70.178 327.600,70.400 327.600 C 70.620 327.600,70.800 328.489,70.800 329.576 C 70.800 330.663,70.980 331.664,71.200 331.800 C 71.420 331.936,71.600 332.847,71.600 333.824 C 71.600 334.801,71.780 335.600,72.000 335.600 C 72.220 335.600,72.400 336.309,72.400 337.176 C 72.400 338.043,72.580 338.864,72.800 339.000 C 73.020 339.136,73.200 339.766,73.200 340.400 C 73.200 341.034,73.380 341.664,73.600 341.800 C 73.820 341.936,74.000 342.667,74.000 343.424 C 74.000 344.181,74.180 344.800,74.400 344.800 C 74.620 344.800,74.800 345.229,74.800 345.754 C 74.800 346.667,75.692 350.001,76.444 351.900 C 76.640 352.395,76.957 353.205,77.149 353.700 C 77.879 355.580,79.412 358.605,79.700 358.733 C 79.865 358.807,80.000 359.086,80.000 359.354 C 80.000 360.063,80.949 361.993,81.300 361.997 C 81.465 361.999,81.600 362.360,81.600 362.800 C 81.600 363.240,81.780 363.600,82.000 363.600 C 82.220 363.600,82.400 363.920,82.400 364.312 C 82.400 364.703,82.760 365.283,83.200 365.600 C 83.640 365.917,84.000 366.457,84.000 366.800 C 84.000 367.143,84.360 367.683,84.800 368.000 C 85.240 368.317,85.600 368.825,85.600 369.128 C 85.600 369.431,86.140 370.183,86.800 370.800 C 87.460 371.417,88.000 372.056,88.000 372.221 C 88.000 372.386,88.945 373.484,90.100 374.660 C 91.255 375.837,92.582 377.204,93.048 377.700 C 94.112 378.829,95.535 380.000,95.844 380.000 C 95.973 380.000,96.583 380.540,97.200 381.200 C 97.817 381.860,98.569 382.400,98.872 382.400 C 99.175 382.400,99.683 382.760,100.000 383.200 C 100.317 383.640,100.857 384.000,101.200 384.000 C 101.543 384.000,102.083 384.360,102.400 384.800 C 102.717 385.240,103.297 385.600,103.688 385.600 C 104.080 385.600,104.400 385.780,104.400 386.000 C 104.400 386.220,104.760 386.400,105.200 386.400 C 105.640 386.400,106.000 386.580,106.000 386.800 C 106.000 387.020,106.360 387.200,106.800 387.200 C 107.240 387.200,107.600 387.380,107.600 387.600 C 107.600 387.820,107.945 388.000,108.367 388.000 C 108.788 388.000,109.193 388.143,109.267 388.319 C 109.444 388.742,113.033 390.400,113.772 390.400 C 114.091 390.400,114.458 390.570,114.586 390.777 C 114.714 390.984,115.624 391.275,116.609 391.422 C 117.594 391.570,118.400 391.850,118.400 392.045 C 118.400 392.240,118.929 392.400,119.576 392.400 C 120.223 392.400,120.864 392.580,121.000 392.800 C 121.136 393.020,121.867 393.200,122.624 393.200 C 123.381 393.200,124.000 393.380,124.000 393.600 C 124.000 393.820,124.630 394.000,125.400 394.000 C 126.170 394.000,126.800 394.180,126.800 394.400 C 126.800 394.620,127.520 394.800,128.400 394.800 C 129.280 394.800,130.000 394.980,130.000 395.200 C 130.000 395.420,130.900 395.600,132.000 395.600 C 133.100 395.600,134.000 395.780,134.000 396.000 C 134.000 396.220,134.900 396.400,136.000 396.400 C 137.100 396.400,138.000 396.580,138.000 396.800 C 138.000 397.026,139.133 397.200,140.600 397.200 C 142.067 397.200,143.200 397.374,143.200 397.600 C 143.200 397.828,144.392 398.000,145.976 398.000 C 147.503 398.000,148.864 398.180,149.000 398.400 C 149.136 398.621,150.926 398.800,152.990 398.800 C 155.629 398.800,156.782 398.947,156.900 399.300 C 157.032 399.696,166.009 399.800,200.000 399.800 C 233.991 399.800,242.968 399.696,243.100 399.300 C 243.218 398.945,244.416 398.800,247.233 398.800 C 249.611 398.800,251.200 398.640,251.200 398.400 C 251.200 398.169,252.467 398.000,254.200 398.000 C 255.933 398.000,257.200 397.831,257.200 397.600 C 257.200 397.378,258.267 397.200,259.600 397.200 C 260.933 397.200,262.000 397.022,262.000 396.800 C 262.000 396.580,262.889 396.400,263.976 396.400 C 265.063 396.400,266.064 396.220,266.200 396.000 C 266.336 395.780,267.247 395.600,268.224 395.600 C 269.201 395.600,270.000 395.420,270.000 395.200 C 270.000 394.980,270.810 394.800,271.800 394.800 C 272.790 394.800,273.600 394.620,273.600 394.400 C 273.600 394.180,274.140 394.000,274.800 394.000 C 275.460 394.000,276.000 393.820,276.000 393.600 C 276.000 393.380,276.720 393.200,277.600 393.200 C 278.480 393.200,279.200 393.020,279.200 392.800 C 279.200 392.580,279.740 392.400,280.400 392.400 C 281.060 392.400,281.600 392.220,281.600 392.000 C 281.600 391.780,282.095 391.599,282.700 391.598 C 283.305 391.596,284.316 391.326,284.946 390.998 C 285.576 390.669,286.316 390.400,286.590 390.400 C 287.214 390.400,292.153 387.906,292.333 387.500 C 292.407 387.335,292.812 387.200,293.233 387.200 C 293.655 387.200,294.000 387.020,294.000 386.800 C 294.000 386.580,294.360 386.400,294.800 386.400 C 295.240 386.400,295.600 386.220,295.600 386.000 C 295.600 385.780,295.960 385.600,296.400 385.600 C 296.840 385.600,297.200 385.442,297.200 385.249 C 297.200 385.055,297.740 384.673,298.400 384.400 C 299.060 384.127,299.600 383.775,299.600 383.619 C 299.600 383.463,300.095 383.081,300.700 382.770 C 301.305 382.460,302.070 381.926,302.400 381.584 C 302.730 381.242,303.630 380.526,304.400 379.994 C 305.170 379.461,306.477 378.300,307.304 377.413 C 308.894 375.707,308.974 375.625,310.455 374.206 C 311.592 373.117,312.800 371.667,312.800 371.392 C 312.800 371.282,313.340 370.628,314.000 369.937 C 314.660 369.246,315.200 368.521,315.200 368.324 C 315.200 368.127,315.560 367.580,316.000 367.108 C 316.440 366.636,316.800 366.013,316.800 365.725 C 316.800 365.436,316.980 365.200,317.200 365.200 C 317.420 365.200,317.600 364.840,317.600 364.400 C 317.600 363.960,317.752 363.600,317.937 363.600 C 318.123 363.600,318.708 362.745,319.237 361.700 C 319.767 360.655,320.335 359.740,320.500 359.667 C 320.665 359.593,320.800 359.276,320.800 358.961 C 320.800 358.647,320.957 358.077,321.150 357.695 C 322.651 354.716,323.200 353.446,323.200 352.957 C 323.200 352.645,323.380 352.032,323.600 351.595 C 323.820 351.158,324.195 350.418,324.434 349.951 C 324.673 349.484,324.968 348.134,325.090 346.951 C 325.212 345.768,325.467 344.800,325.656 344.800 C 325.845 344.800,326.000 344.260,326.000 343.600 C 326.000 342.940,326.180 342.400,326.400 342.400 C 326.620 342.400,326.800 341.781,326.800 341.024 C 326.800 340.267,326.980 339.536,327.200 339.400 C 327.420 339.264,327.600 338.544,327.600 337.800 C 327.600 337.056,327.780 336.336,328.000 336.200 C 328.220 336.064,328.400 335.153,328.400 334.176 C 328.400 333.199,328.580 332.400,328.800 332.400 C 329.020 332.400,329.200 331.511,329.200 330.424 C 329.200 329.337,329.380 328.336,329.600 328.200 C 329.820 328.064,330.000 327.513,330.000 326.976 C 330.000 326.267,330.218 326.000,330.800 326.000 C 331.240 326.000,331.600 325.820,331.600 325.600 C 331.600 325.380,331.879 325.200,332.220 325.200 C 332.847 325.200,335.232 324.099,335.600 323.639 C 335.710 323.502,336.655 322.958,337.700 322.432 C 338.745 321.905,339.600 321.366,339.600 321.235 C 339.600 321.103,340.106 320.771,340.725 320.497 C 341.344 320.224,342.199 319.685,342.625 319.300 C 343.051 318.915,343.895 318.345,344.500 318.032 C 345.105 317.720,345.600 317.315,345.600 317.132 C 345.600 316.950,345.843 316.800,346.141 316.800 C 346.438 316.800,347.246 316.260,347.937 315.600 C 348.628 314.940,349.392 314.400,349.636 314.400 C 349.880 314.400,350.583 313.860,351.200 313.200 C 351.817 312.540,352.519 312.000,352.760 312.000 C 353.002 312.000,353.200 311.820,353.200 311.600 C 353.200 311.380,353.398 311.200,353.640 311.200 C 353.881 311.200,354.556 310.705,355.140 310.100 C 355.723 309.495,357.099 308.280,358.198 307.400 C 360.810 305.308,367.134 298.984,368.398 297.200 C 368.943 296.430,370.112 295.049,370.995 294.132 C 372.862 292.191,375.200 289.088,375.200 288.549 C 375.200 288.344,375.560 287.917,376.000 287.600 C 376.440 287.283,376.800 286.743,376.800 286.400 C 376.800 286.057,377.160 285.517,377.600 285.200 C 378.040 284.883,378.400 284.343,378.400 284.000 C 378.400 283.657,378.760 283.117,379.200 282.800 C 379.640 282.483,380.000 281.986,380.000 281.695 C 380.000 281.404,380.360 280.780,380.800 280.308 C 381.240 279.836,381.600 279.213,381.600 278.925 C 381.600 278.636,381.780 278.400,382.000 278.400 C 382.220 278.400,382.400 278.040,382.400 277.600 C 382.400 277.160,382.580 276.800,382.800 276.800 C 383.020 276.800,383.200 276.440,383.200 276.000 C 383.200 275.560,383.380 275.200,383.600 275.200 C 383.820 275.200,384.000 274.945,384.000 274.633 C 384.000 274.322,384.135 274.007,384.300 273.933 C 384.724 273.745,387.200 268.801,387.200 268.144 C 387.200 267.845,387.380 267.600,387.600 267.600 C 387.820 267.600,388.000 267.240,388.000 266.800 C 388.000 266.360,388.180 266.000,388.400 266.000 C 388.620 266.000,388.800 265.651,388.800 265.224 C 388.800 264.797,388.980 264.336,389.200 264.200 C 389.420 264.064,389.600 263.513,389.600 262.976 C 389.600 262.439,389.780 262.000,390.000 262.000 C 390.220 262.000,390.400 261.651,390.400 261.224 C 390.400 260.797,390.570 260.342,390.777 260.214 C 390.984 260.086,391.275 259.173,391.423 258.186 C 391.571 257.198,391.852 256.292,392.046 256.171 C 392.241 256.051,392.400 255.524,392.400 255.000 C 392.400 254.476,392.580 253.936,392.800 253.800 C 393.020 253.664,393.200 253.023,393.200 252.376 C 393.200 251.729,393.380 251.200,393.600 251.200 C 393.820 251.200,394.000 250.660,394.000 250.000 C 394.000 249.340,394.180 248.800,394.400 248.800 C 394.620 248.800,394.800 248.080,394.800 247.200 C 394.800 246.320,394.980 245.600,395.200 245.600 C 395.420 245.600,395.600 244.880,395.600 244.000 C 395.600 243.120,395.780 242.400,396.000 242.400 C 396.220 242.400,396.400 241.680,396.400 240.800 C 396.400 239.920,396.580 239.200,396.800 239.200 C 397.020 239.200,397.200 238.390,397.200 237.400 C 397.200 236.410,397.380 235.600,397.600 235.600 C 397.822 235.600,398.000 234.533,398.000 233.200 C 398.000 231.867,398.178 230.800,398.400 230.800 C 398.628 230.800,398.800 229.611,398.800 228.033 C 398.800 226.176,398.964 225.212,399.300 225.100 C 399.693 224.969,399.800 219.591,399.800 200.000 C 399.800 180.409,399.693 175.031,399.300 174.900 C 398.965 174.788,398.800 173.829,398.800 171.990 C 398.800 170.482,398.620 169.136,398.400 169.000 C 398.180 168.864,398.000 167.784,398.000 166.600 C 398.000 165.416,397.820 164.336,397.600 164.200 C 397.380 164.064,397.200 163.063,397.200 161.976 C 397.200 160.889,397.020 160.000,396.800 160.000 C 396.580 160.000,396.400 159.280,396.400 158.400 C 396.400 157.520,396.220 156.800,396.000 156.800 C 395.780 156.800,395.600 155.900,395.600 154.800 C 395.600 153.700,395.420 152.800,395.200 152.800 C 394.980 152.800,394.800 152.080,394.800 151.200 C 394.800 150.320,394.620 149.600,394.400 149.600 C 394.180 149.600,394.000 148.970,394.000 148.200 C 394.000 147.430,393.820 146.800,393.600 146.800 C 393.380 146.800,393.200 146.170,393.200 145.400 C 393.200 144.630,393.020 144.000,392.800 144.000 C 392.580 144.000,392.400 143.370,392.400 142.600 C 392.400 141.830,392.220 141.200,392.000 141.200 C 391.780 141.200,391.600 140.759,391.600 140.220 C 391.600 139.040,388.755 130.256,388.312 130.067 C 388.140 129.993,388.000 129.586,388.000 129.161 C 388.000 128.737,387.820 128.032,387.600 127.595 C 387.380 127.158,387.020 126.442,386.800 126.005 C 386.580 125.568,386.400 124.938,386.400 124.605 C 386.400 124.272,386.253 124.000,386.072 124.000 C 385.892 124.000,385.500 123.100,385.200 122.000 C 384.900 120.900,384.508 120.000,384.328 120.000 C 384.147 120.000,384.000 119.640,384.000 119.200 C 384.000 118.760,383.820 118.400,383.600 118.400 C 383.380 118.400,383.200 118.040,383.200 117.600 C 383.200 117.160,383.020 116.800,382.800 116.800 C 382.580 116.800,382.400 116.451,382.400 116.024 C 382.400 115.597,382.220 115.136,382.000 115.000 C 381.780 114.864,381.600 114.403,381.600 113.976 C 381.600 113.549,381.420 113.200,381.200 113.200 C 380.980 113.200,380.800 112.840,380.800 112.400 C 380.800 111.960,380.620 111.600,380.400 111.600 C 380.180 111.600,380.000 111.240,380.000 110.800 C 380.000 110.360,379.820 110.000,379.600 110.000 C 379.380 110.000,379.200 109.640,379.200 109.200 C 379.200 108.760,379.020 108.400,378.800 108.400 C 378.580 108.400,378.400 108.040,378.400 107.600 C 378.400 107.160,378.220 106.800,378.000 106.800 C 377.780 106.800,377.600 106.564,377.600 106.275 C 377.600 105.987,377.240 105.364,376.800 104.892 C 376.360 104.420,376.000 103.756,376.000 103.417 C 376.000 103.078,375.820 102.800,375.600 102.800 C 375.380 102.800,375.200 102.521,375.200 102.180 C 375.200 101.553,374.099 99.168,373.639 98.800 C 373.502 98.690,372.958 97.745,372.432 96.700 C 371.905 95.655,371.366 94.800,371.235 94.800 C 371.103 94.800,370.771 94.294,370.497 93.675 C 370.224 93.056,369.685 92.201,369.300 91.775 C 368.915 91.349,368.345 90.505,368.032 89.900 C 367.720 89.295,367.315 88.800,367.132 88.800 C 366.950 88.800,366.800 88.480,366.800 88.088 C 366.800 87.697,366.440 87.117,366.000 86.800 C 365.560 86.483,365.200 86.020,365.200 85.771 C 365.200 85.522,364.660 84.754,364.000 84.063 C 363.340 83.372,362.800 82.575,362.800 82.292 C 362.800 82.009,362.440 81.517,362.000 81.200 C 361.560 80.883,361.200 80.393,361.200 80.112 C 361.200 79.830,361.020 79.600,360.800 79.600 C 360.580 79.600,360.400 79.396,360.400 79.147 C 360.400 78.898,360.083 78.403,359.696 78.047 C 359.308 77.691,358.462 76.680,357.816 75.800 C 357.170 74.920,356.317 73.909,355.921 73.553 C 355.524 73.197,355.200 72.718,355.200 72.488 C 355.200 72.258,354.120 70.973,352.800 69.632 C 351.480 68.292,350.400 67.026,350.400 66.820 C 350.400 66.614,348.610 64.680,346.421 62.522 C 341.590 57.759,342.241 58.410,337.478 53.579 C 335.320 51.390,333.386 49.600,333.180 49.600 C 332.974 49.600,331.708 48.520,330.368 47.200 C 329.027 45.880,327.742 44.800,327.512 44.800 C 327.282 44.800,326.803 44.476,326.447 44.079 C 326.091 43.683,325.080 42.830,324.200 42.184 C 323.320 41.538,322.309 40.692,321.953 40.304 C 321.597 39.917,321.102 39.600,320.853 39.600 C 320.604 39.600,320.400 39.420,320.400 39.200 C 320.400 38.980,320.170 38.800,319.888 38.800 C 319.607 38.800,319.117 38.440,318.800 38.000 C 318.483 37.560,317.991 37.200,317.708 37.200 C 317.425 37.200,316.628 36.660,315.937 36.000 C 315.246 35.340,314.478 34.800,314.229 34.800 C 313.980 34.800,313.517 34.440,313.200 34.000 C 312.883 33.560,312.343 33.200,312.000 33.200 C 311.657 33.200,311.117 32.840,310.800 32.400 C 310.483 31.960,309.986 31.600,309.695 31.600 C 309.404 31.600,308.780 31.240,308.308 30.800 C 307.836 30.360,306.944 29.776,306.325 29.503 C 305.706 29.229,305.200 28.897,305.200 28.765 C 305.200 28.634,304.345 28.095,303.300 27.568 C 302.255 27.042,301.310 26.518,301.200 26.405 C 300.755 25.949,298.298 24.800,297.768 24.800 C 297.455 24.800,297.200 24.620,297.200 24.400 C 297.200 24.180,296.855 24.000,296.433 24.000 C 296.012 24.000,295.607 23.865,295.533 23.700 C 295.366 23.324,293.236 22.025,292.300 21.729 C 291.915 21.607,291.600 21.348,291.600 21.153 C 291.600 20.959,291.240 20.800,290.800 20.800 C 290.360 20.800,290.000 20.620,290.000 20.400 C 290.000 20.180,289.640 20.000,289.200 20.000 C 288.760 20.000,288.400 19.864,288.400 19.698 C 288.400 19.531,287.815 19.160,287.100 18.871 C 286.385 18.583,285.487 18.179,285.105 17.974 C 284.723 17.768,284.138 17.600,283.805 17.600 C 283.472 17.600,283.200 17.420,283.200 17.200 C 283.200 16.980,282.840 16.800,282.400 16.800 C 281.960 16.800,281.600 16.620,281.600 16.400 C 281.600 16.180,281.240 16.000,280.800 16.000 C 280.360 16.000,280.000 15.853,280.000 15.672 C 280.000 15.492,279.100 15.100,278.000 14.800 C 276.900 14.500,276.000 14.108,276.000 13.928 C 276.000 13.747,275.728 13.600,275.395 13.600 C 275.062 13.600,274.387 13.392,273.895 13.138 C 271.976 12.145,271.585 12.000,270.839 12.000 C 270.414 12.000,270.007 11.860,269.933 11.688 C 269.744 11.245,260.960 8.400,259.780 8.400 C 259.241 8.400,258.800 8.220,258.800 8.000 C 258.800 7.780,258.170 7.600,257.400 7.600 C 256.630 7.600,256.000 7.420,256.000 7.200 C 256.000 6.980,255.471 6.800,254.824 6.800 C 254.177 6.800,253.536 6.620,253.400 6.400 C 253.264 6.180,252.533 6.000,251.776 6.000 C 251.019 6.000,250.400 5.820,250.400 5.600 C 250.400 5.380,249.680 5.200,248.800 5.200 C 247.920 5.200,247.200 5.020,247.200 4.800 C 247.200 4.580,246.300 4.400,245.200 4.400 C 244.100 4.400,243.200 4.220,243.200 4.000 C 243.200 3.780,242.480 3.600,241.600 3.600 C 240.720 3.600,240.000 3.420,240.000 3.200 C 240.000 2.980,239.111 2.800,238.024 2.800 C 236.937 2.800,235.936 2.620,235.800 2.400 C 235.664 2.180,234.584 2.000,233.400 2.000 C 232.216 2.000,231.136 1.820,231.000 1.600 C 230.864 1.380,229.518 1.200,228.010 1.200 C 226.193 1.200,225.211 1.034,225.103 0.708 C 224.941 0.222,187.291 -0.126,178.300 0.275 M184.800 17.600 C 184.800 17.820,184.386 18.000,183.880 18.000 C 183.374 18.000,182.789 18.162,182.580 18.359 C 182.371 18.556,181.480 18.815,180.600 18.933 C 178.662 19.194,175.959 19.778,173.800 20.403 C 172.920 20.657,171.703 20.962,171.095 21.079 C 170.487 21.196,169.892 21.451,169.771 21.646 C 169.651 21.841,169.149 22.000,168.656 22.000 C 168.163 22.000,167.589 22.143,167.380 22.318 C 167.171 22.493,166.280 22.871,165.400 23.158 C 158.902 25.273,145.783 32.347,140.454 36.609 C 131.655 43.647,125.254 50.051,120.274 56.800 C 119.219 58.230,118.095 59.717,117.778 60.105 C 117.460 60.492,117.200 60.878,117.200 60.963 C 117.200 61.047,116.152 62.800,114.871 64.858 C 111.964 69.530,109.309 74.782,107.622 79.200 C 106.908 81.070,106.170 82.960,105.982 83.400 C 105.409 84.741,104.316 88.119,103.975 89.600 C 103.798 90.370,103.446 91.720,103.193 92.600 C 99.492 105.474,99.350 125.276,102.857 139.400 C 103.774 143.095,104.804 146.778,105.205 147.800 C 105.378 148.240,105.736 149.230,106.000 150.000 C 106.264 150.770,106.643 151.805,106.840 152.300 C 107.038 152.795,107.350 153.605,107.534 154.100 C 108.653 157.113,114.663 168.691,116.515 171.400 C 130.326 191.605,150.654 206.683,171.800 212.406 C 177.966 214.075,183.448 215.210,188.600 215.885 C 192.241 216.363,208.973 216.233,212.600 215.699 C 219.872 214.629,221.184 214.353,228.200 212.413 C 236.274 210.180,247.018 205.316,253.070 201.152 C 253.991 200.518,254.922 200.000,255.139 200.000 C 255.356 200.000,255.593 199.855,255.667 199.677 C 255.740 199.499,256.700 198.747,257.800 198.006 C 290.394 176.052,306.995 131.391,296.906 92.800 C 296.589 91.590,296.170 89.947,295.974 89.148 C 294.391 82.698,288.550 69.520,285.154 64.738 C 284.739 64.154,284.400 63.562,284.400 63.422 C 284.400 61.865,272.008 47.008,267.517 43.180 C 265.912 41.813,264.058 40.223,263.396 39.647 C 259.474 36.235,251.546 30.986,246.000 28.130 C 238.986 24.517,232.909 22.195,224.800 20.027 C 223.810 19.762,222.447 19.378,221.772 19.173 C 221.096 18.968,219.892 18.800,219.095 18.800 C 218.299 18.800,217.536 18.620,217.400 18.400 C 217.264 18.180,216.713 18.000,216.176 18.000 C 215.639 18.000,215.200 17.799,215.200 17.553 C 215.200 17.267,215.595 17.204,216.300 17.377 C 216.905 17.525,219.020 17.817,221.000 18.024 C 227.114 18.664,231.897 19.366,234.400 19.991 C 235.170 20.183,236.880 20.547,238.200 20.800 C 241.881 21.505,243.519 21.919,251.000 24.033 C 258.129 26.047,264.901 28.395,269.496 30.444 C 270.428 30.860,271.287 31.200,271.404 31.200 C 272.342 31.200,286.525 38.364,292.481 41.847 C 312.953 53.819,333.318 71.964,346.336 89.833 C 348.891 93.339,348.986 92.438,345.249 100.122 C 339.347 112.259,336.486 121.846,334.306 136.800 C 333.667 141.179,333.672 158.195,334.313 163.200 C 335.091 169.276,335.968 174.286,336.764 177.200 C 336.974 177.970,337.266 179.050,337.413 179.600 C 340.092 189.619,344.077 199.393,348.478 206.741 C 349.315 208.138,350.000 209.355,350.000 209.445 C 350.000 209.818,354.756 216.850,357.138 220.000 C 362.079 226.532,368.574 233.389,374.719 238.563 C 377.966 241.296,378.901 242.996,377.600 243.800 C 377.380 243.936,377.197 244.442,377.194 244.924 C 377.187 245.881,376.313 248.620,375.874 249.059 C 375.723 249.210,375.600 249.666,375.600 250.072 C 375.600 250.478,375.430 251.123,375.222 251.505 C 375.014 251.887,374.296 253.674,373.626 255.477 C 372.028 259.776,369.082 265.860,366.786 269.600 C 365.774 271.250,364.688 273.041,364.373 273.580 C 364.058 274.118,363.485 274.917,363.100 275.355 C 362.715 275.793,362.400 276.387,362.400 276.675 C 362.400 276.964,362.259 277.200,362.086 277.200 C 361.914 277.200,361.464 277.723,361.086 278.362 C 358.492 282.754,346.796 294.678,340.400 299.454 C 335.901 302.812,332.492 305.200,332.195 305.200 C 332.077 305.200,332.016 302.905,332.059 300.100 C 332.156 293.753,332.187 293.817,326.071 287.515 C 318.592 279.808,308.589 271.943,300.283 267.240 C 299.468 266.778,298.125 266.009,297.300 265.531 C 290.176 261.403,276.576 255.445,268.200 252.782 C 266.000 252.083,263.887 251.351,263.505 251.155 C 263.123 250.960,262.459 250.800,262.029 250.800 C 261.599 250.800,261.136 250.620,261.000 250.400 C 260.864 250.180,260.234 250.000,259.600 250.000 C 258.966 250.000,258.348 249.840,258.227 249.644 C 258.106 249.449,257.421 249.192,256.704 249.073 C 255.987 248.955,254.635 248.665,253.700 248.429 C 249.398 247.343,248.485 247.127,246.800 246.793 C 245.810 246.597,244.100 246.239,243.000 245.997 C 239.377 245.201,232.210 244.010,228.600 243.604 C 217.369 242.341,214.524 242.200,200.200 242.200 C 181.470 242.200,172.357 243.004,157.300 245.984 C 156.145 246.213,154.345 246.565,153.300 246.767 C 152.255 246.968,150.680 247.340,149.800 247.593 C 148.290 248.027,147.266 248.292,143.700 249.169 C 141.109 249.806,140.224 250.057,139.400 250.388 C 138.960 250.564,137.790 250.930,136.800 251.201 C 134.776 251.754,132.988 252.326,131.800 252.800 C 131.360 252.976,130.370 253.336,129.600 253.600 C 128.830 253.864,127.840 254.224,127.400 254.400 C 126.960 254.576,125.970 254.936,125.200 255.200 C 123.638 255.736,123.623 255.742,118.600 257.822 C 112.169 260.484,102.071 265.683,98.738 268.047 C 98.154 268.461,97.559 268.800,97.416 268.800 C 97.022 268.800,92.219 272.097,92.067 272.472 C 91.993 272.653,91.752 272.800,91.530 272.800 C 91.308 272.800,90.648 273.172,90.063 273.627 C 89.478 274.082,87.948 275.249,86.661 276.220 C 75.722 284.478,68.000 293.099,68.000 297.055 C 68.000 299.764,67.766 299.852,65.168 298.114 C 56.947 292.617,46.599 282.834,40.436 274.733 C 38.874 272.680,37.454 270.820,37.279 270.600 C 36.446 269.551,33.600 265.215,33.600 264.994 C 33.600 264.857,33.094 263.992,32.476 263.072 C 30.938 260.784,27.154 252.932,25.598 248.800 C 24.137 244.919,23.874 244.234,23.250 242.681 C 22.536 240.906,22.659 240.656,25.300 238.486 C 34.993 230.522,43.965 219.651,51.285 207.000 C 55.662 199.437,60.786 186.967,62.462 179.800 C 62.668 178.920,63.018 177.480,63.240 176.600 C 65.361 168.194,66.173 160.814,66.170 150.000 C 66.166 139.131,65.437 132.628,63.222 123.700 C 62.990 122.765,62.609 121.235,62.375 120.300 C 62.142 119.365,61.851 118.103,61.729 117.495 C 61.607 116.887,61.349 116.292,61.154 116.171 C 60.959 116.051,60.800 115.641,60.800 115.260 C 60.800 113.967,57.195 105.026,54.391 99.366 C 50.947 92.415,50.893 93.216,55.183 87.735 C 60.777 80.588,62.453 78.723,70.588 70.593 C 79.967 61.219,85.310 56.667,94.213 50.460 C 97.066 48.472,99.589 46.700,99.820 46.522 C 100.052 46.345,100.682 45.940,101.220 45.621 C 101.759 45.303,104.270 43.794,106.800 42.267 C 112.871 38.605,122.512 33.699,128.200 31.377 C 129.080 31.018,130.340 30.490,131.000 30.205 C 134.667 28.620,143.831 25.411,148.000 24.251 C 158.008 21.467,160.664 20.847,168.000 19.584 C 172.990 18.726,175.589 18.371,179.091 18.069 C 181.121 17.894,182.906 17.627,183.058 17.476 C 183.480 17.054,184.800 17.148,184.800 17.600 M210.800 34.053 C 220.139 35.378,227.158 37.433,235.600 41.315 C 258.059 51.643,276.257 74.316,281.256 98.200 C 282.895 106.027,282.955 106.670,282.977 116.600 C 282.993 123.414,282.831 127.428,282.470 129.200 C 282.178 130.630,281.765 132.700,281.552 133.800 C 280.526 139.098,277.677 147.421,274.991 152.965 C 258.785 186.420,221.555 205.485,185.600 198.741 C 179.535 197.603,179.362 197.560,174.000 195.835 C 147.832 187.418,127.101 165.727,119.679 139.000 C 118.119 133.380,117.257 128.141,116.850 121.800 C 116.189 111.485,117.452 101.402,120.709 91.000 C 127.993 67.740,146.835 47.800,169.880 38.965 C 182.839 33.998,197.771 32.205,210.800 34.053 M43.174 113.781 C 56.698 148.371,49.717 188.119,25.310 215.504 C 19.181 222.380,18.613 222.764,18.235 220.286 C 16.406 208.279,16.148 192.531,17.593 181.099 C 18.668 172.595,18.963 170.626,19.859 166.000 C 23.505 147.165,29.494 130.359,38.628 113.330 C 41.239 108.463,41.089 108.448,43.174 113.781 M363.527 117.384 C 366.506 123.362,368.385 127.347,369.242 129.500 C 370.359 132.308,371.003 133.887,371.648 135.400 C 371.933 136.068,374.645 144.311,375.992 148.600 C 378.397 156.261,380.768 167.711,381.998 177.600 C 383.841 192.415,383.589 222.400,381.623 222.400 C 381.256 222.400,373.867 214.704,372.069 212.449 C 369.354 209.044,368.000 207.184,368.000 206.859 C 368.000 206.675,367.640 206.198,367.200 205.800 C 366.760 205.402,366.400 204.862,366.400 204.600 C 366.400 204.338,366.040 203.798,365.600 203.400 C 365.160 203.002,364.800 202.507,364.800 202.300 C 364.800 202.093,364.467 201.446,364.060 200.862 C 363.038 199.394,359.999 193.535,358.635 190.400 C 358.013 188.970,357.266 187.260,356.977 186.600 C 356.687 185.940,355.875 183.600,355.174 181.400 C 354.472 179.200,353.754 177.040,353.579 176.600 C 353.404 176.160,353.149 175.260,353.012 174.600 C 352.876 173.940,352.589 172.680,352.375 171.800 C 350.790 165.274,350.233 159.699,350.216 150.200 C 350.198 139.967,350.347 138.296,352.036 129.800 C 352.724 126.339,353.978 121.592,354.439 120.705 C 354.638 120.323,354.800 119.684,354.800 119.285 C 354.800 118.886,354.949 118.389,355.130 118.180 C 355.312 117.971,355.710 116.990,356.015 116.000 C 356.319 115.010,357.088 113.040,357.724 111.622 L 358.879 109.044 359.605 110.006 C 360.004 110.535,361.769 113.855,363.527 117.384 M213.800 258.806 C 223.588 259.505,236.095 261.218,243.000 262.807 C 254.490 265.450,266.253 269.067,272.200 271.786 C 272.860 272.087,274.210 272.653,275.200 273.043 C 286.789 277.607,300.970 286.630,310.950 295.788 C 315.750 300.193,315.712 300.121,315.229 304.107 C 315.009 305.918,314.624 309.560,314.373 312.200 C 313.848 317.710,312.621 326.184,311.650 331.000 C 303.716 370.351,282.545 381.762,214.900 383.149 C 114.025 385.217,91.406 372.840,85.605 312.400 C 85.362 309.870,84.992 306.360,84.781 304.600 C 84.571 302.840,84.399 301.167,84.399 300.881 C 84.400 300.166,90.213 294.543,94.800 290.823 C 109.786 278.665,130.185 269.244,153.600 263.666 C 172.086 259.262,194.653 257.441,213.800 258.806 M150.200 284.064 C 143.631 287.676,140.581 302.660,141.930 324.700 C 143.056 343.093,146.398 349.977,154.200 349.977 C 160.915 349.977,164.065 345.046,166.016 331.480 C 166.615 327.312,166.600 305.782,165.995 301.737 C 164.407 291.117,162.187 286.126,158.126 284.047 C 157.008 283.475,151.250 283.487,150.200 284.064 M241.685 284.184 C 235.766 287.452,233.611 296.142,233.601 316.800 C 233.588 340.937,236.957 350.032,245.896 349.989 C 255.096 349.944,259.018 337.871,258.238 312.000 C 257.898 300.746,257.024 294.964,254.910 290.000 C 252.581 284.529,246.168 281.709,241.685 284.184 " stroke="none" fill="#1a1b1c" fill-rule="evenodd"></path><path id="path2" d="M195.400 33.459 C 191.070 33.624,183.782 34.764,179.000 36.024 C 143.965 45.252,119.196 75.367,116.842 111.600 C 116.263 120.507,117.285 130.378,119.679 139.000 C 127.101 165.727,147.832 187.418,174.000 195.835 C 179.362 197.560,179.535 197.603,185.600 198.741 C 221.555 205.485,258.785 186.420,274.991 152.965 C 277.677 147.421,280.526 139.098,281.552 133.800 C 281.765 132.700,282.178 130.630,282.470 129.200 C 283.289 125.182,283.156 107.605,282.273 103.200 C 281.107 97.384,280.946 96.688,280.025 93.449 C 275.890 78.906,267.323 65.263,255.755 54.800 C 239.273 39.894,218.567 32.572,195.400 33.459 M38.628 113.330 C 29.494 130.359,23.505 147.165,19.859 166.000 C 18.963 170.626,18.668 172.595,17.593 181.099 C 16.375 190.736,16.387 206.371,17.621 215.800 C 18.535 222.790,18.428 222.641,20.850 220.275 C 48.596 193.162,57.536 150.515,43.174 113.781 C 41.089 108.448,41.239 108.463,38.628 113.330 M357.724 111.622 C 357.088 113.040,356.319 115.010,356.015 116.000 C 355.710 116.990,355.312 117.971,355.130 118.180 C 354.949 118.389,354.800 118.886,354.800 119.285 C 354.800 119.684,354.638 120.323,354.439 120.705 C 353.978 121.592,352.724 126.339,352.036 129.800 C 350.347 138.296,350.198 139.967,350.216 150.200 C 350.233 159.699,350.790 165.274,352.375 171.800 C 352.589 172.680,352.876 173.940,353.012 174.600 C 353.149 175.260,353.404 176.160,353.579 176.600 C 353.754 177.040,354.472 179.200,355.174 181.400 C 355.875 183.600,356.689 185.940,356.983 186.600 C 357.276 187.260,357.906 188.700,358.382 189.800 C 359.678 192.791,363.192 199.651,364.049 200.862 C 364.462 201.446,364.800 202.093,364.800 202.300 C 364.800 202.507,365.160 203.002,365.600 203.400 C 366.040 203.798,366.400 204.338,366.400 204.600 C 366.400 204.862,366.760 205.402,367.200 205.800 C 367.640 206.198,368.000 206.675,368.000 206.859 C 368.000 207.184,369.354 209.044,372.069 212.449 C 373.867 214.704,381.256 222.400,381.623 222.400 C 383.584 222.400,383.835 192.372,381.998 177.600 C 380.768 167.711,378.397 156.261,375.992 148.600 C 374.645 144.311,371.933 136.068,371.648 135.400 C 371.003 133.887,370.359 132.308,369.242 129.500 C 367.694 125.609,360.694 111.451,359.605 110.006 L 358.879 109.044 357.724 111.622 M191.000 258.639 C 183.288 258.968,169.327 260.547,162.600 261.851 C 153.528 263.610,141.386 266.748,137.400 268.365 C 136.960 268.543,135.880 268.909,135.000 269.178 C 134.120 269.447,132.637 270.012,131.704 270.434 C 130.772 270.855,129.824 271.200,129.599 271.200 C 129.374 271.200,128.877 271.359,128.495 271.553 C 128.113 271.748,127.350 272.085,126.800 272.303 C 125.765 272.712,124.059 273.481,119.600 275.546 C 107.983 280.927,95.074 289.770,87.297 297.674 L 84.395 300.624 84.780 303.812 C 84.992 305.565,85.362 309.070,85.602 311.600 C 85.842 314.130,86.206 317.326,86.410 318.702 C 87.794 328.020,88.116 329.773,89.645 336.300 C 96.410 365.170,114.813 377.766,155.800 381.577 C 169.599 382.860,173.504 382.985,200.000 382.987 C 226.614 382.990,229.473 382.898,243.800 381.579 C 293.930 376.965,309.614 361.328,314.392 311.200 C 314.633 308.670,314.980 305.250,315.164 303.600 L 315.498 300.600 312.649 297.662 C 309.348 294.257,302.492 288.597,297.602 285.237 C 292.795 281.935,280.967 275.487,276.000 273.459 C 275.010 273.055,273.660 272.486,273.000 272.195 C 272.340 271.904,270.990 271.364,270.000 270.996 C 269.010 270.627,267.840 270.172,267.400 269.984 C 259.493 266.611,240.560 261.986,228.068 260.377 C 217.295 258.989,200.851 258.218,191.000 258.639 M159.555 284.931 C 168.660 291.475,169.642 338.031,160.871 347.337 C 156.336 352.149,148.385 350.536,145.430 344.205 C 143.860 340.841,143.621 339.929,142.335 332.400 C 140.937 324.214,141.802 301.106,143.792 293.488 C 146.165 284.403,153.376 280.489,159.555 284.931 M250.770 284.581 C 254.282 286.798,256.025 290.793,257.671 300.400 C 258.379 304.528,258.381 328.656,257.674 332.800 C 255.453 345.815,252.549 350.000,245.735 350.000 C 238.984 350.000,236.129 345.645,233.931 332.000 C 233.267 327.874,233.287 305.209,233.958 301.200 C 235.663 291.019,237.358 286.925,240.813 284.639 C 243.439 282.901,248.066 282.874,250.770 284.581 " stroke="none" fill="#f3e9e1" fill-rule="evenodd"></path></g></svg>